<svg width="934" height="276" viewBox="0 0 934 276" fill="none" xmlns="http://www.w3.org/2000/svg">
<path d="M6.26257 137.619C5.92903 145.186 5.75256 151.551 8.74882 158.425C3.26411 166.652 4.94067 184.67 6.65513 193.756C8.79707 205.108 16.4825 212.089 24.3206 219.927C39.9132 235.52 57.0362 250.729 80.4577 251.267C184.252 253.653 288.029 253.085 391.828 258.006C462.411 261.353 532.831 269.007 603.487 270.765C676.17 272.573 748.967 264.167 818.483 243.22C855.841 231.963 899.777 213.145 917.671 175.829C926.905 156.574 930.203 133.675 928.925 112.495C927.985 96.9221 925.822 73.1793 914.531 60.9378C896.969 41.8973 862.691 35.3549 838.373 33.1965C806.026 30.3254 773.528 28.9718 741.147 26.5228C701.595 23.5315 662.473 17.1734 622.788 15.9235C572.989 14.3551 523.402 13.6112 473.613 10.6239C438.817 8.53611 403.939 7.6631 369.125 5.84766C337.66 4.20683 305.826 5.01755 274.451 7.67964C233.554 11.1497 192.671 15.9245 152.297 23.3823C120.864 29.1888 89.1512 37.1593 59.6516 49.6843C50.3687 53.6256 42.1582 58.5261 34.7891 65.3869C25.9991 73.5707 14.443 82.0503 11.1042 94.1751C7.29666 108.003 6.88944 123.397 6.26257 137.619Z" fill="black" stroke="#F4B869" stroke-width="9" stroke-linecap="round"/>
<path d="M181.005 149.583C179.674 149.967 178.333 150.153 177.012 150.153C170.708 150.153 164.892 146.004 163.07 139.648C161.281 133.408 164.9 126.877 171.137 125.088C176.215 123.635 181.531 126.587 182.987 131.665C183.565 133.675 183.324 135.79 182.31 137.614C181.295 139.45 179.629 140.775 177.619 141.345C174.207 142.332 170.638 140.345 169.66 136.94C169.268 135.569 169.432 134.14 170.12 132.897C170.809 131.653 171.939 130.758 173.303 130.363C174.438 130.038 175.632 130.178 176.665 130.747C177.697 131.316 178.445 132.257 178.77 133.396C179.333 135.36 178.194 137.405 176.231 137.975C175.785 138.102 175.323 137.847 175.195 137.394C175.067 136.952 175.325 136.487 175.77 136.359C176.844 136.057 177.466 134.93 177.159 133.849C176.958 133.152 176.493 132.571 175.851 132.211C175.212 131.862 174.471 131.769 173.765 131.979C172.831 132.246 172.058 132.862 171.587 133.71C171.116 134.558 171.003 135.546 171.272 136.476C171.996 138.997 174.635 140.462 177.156 139.741C178.737 139.288 180.046 138.242 180.843 136.801C181.64 135.36 181.83 133.698 181.377 132.118C180.175 127.935 175.79 125.506 171.598 126.703C169.008 127.447 166.862 129.155 165.556 131.514C164.248 133.873 163.938 136.592 164.682 139.183C166.631 145.981 173.746 149.92 180.542 147.98C184.712 146.783 188.166 144.029 190.269 140.241C192.371 136.441 192.87 132.06 191.675 127.888C190.164 122.624 186.693 118.267 181.902 115.606C177.111 112.956 171.574 112.317 166.308 113.828C165.863 113.956 165.399 113.7 165.271 113.258C165.143 112.817 165.4 112.352 165.846 112.224C171.54 110.586 177.533 111.271 182.715 114.142C187.898 117.012 191.652 121.73 193.285 127.424C194.605 132.025 194.054 136.871 191.735 141.054C189.416 145.237 185.604 148.27 181.005 149.583ZM180.018 176.496C180.186 176.066 180.67 175.845 181.102 176.019C181.535 176.182 181.75 176.67 181.582 177.1C179.444 182.62 175.283 186.989 169.863 189.383C166.992 190.649 163.949 191.288 160.901 191.288C158.195 191.288 155.488 190.789 152.89 189.789C148.426 188.058 144.903 184.7 142.968 180.319C141.032 175.95 140.918 171.081 142.645 166.619C145.528 159.158 153.942 155.44 161.398 158.322C167.449 160.657 170.469 167.49 168.127 173.544C166.222 178.471 160.665 180.923 155.735 179.018C151.707 177.46 149.698 172.917 151.256 168.885C151.876 167.281 153.083 166.026 154.655 165.329C156.226 164.632 157.974 164.585 159.577 165.213C160.902 165.724 161.946 166.723 162.521 168.013C163.095 169.314 163.128 170.755 162.617 172.08C162.191 173.184 161.362 174.055 160.281 174.532C159.202 175.008 158.001 175.043 156.901 174.613C154.996 173.881 154.046 171.731 154.783 169.826C154.95 169.396 155.436 169.175 155.867 169.349C156.299 169.512 156.513 170 156.346 170.43C156.15 170.93 156.163 171.487 156.383 171.975C156.601 172.475 157.001 172.847 157.505 173.045C158.188 173.312 158.935 173.3 159.604 172.998C160.274 172.708 160.788 172.162 161.053 171.476C161.404 170.57 161.381 169.582 160.988 168.699C160.594 167.804 159.879 167.13 158.972 166.77C157.786 166.317 156.494 166.351 155.332 166.863C154.17 167.374 153.278 168.304 152.82 169.489C151.594 172.661 153.174 176.229 156.34 177.46C160.404 179.029 164.991 177.007 166.564 172.94C168.571 167.746 165.982 161.889 160.793 159.89C157.598 158.647 154.114 158.728 150.982 160.111C147.85 161.506 145.443 164.027 144.208 167.223C142.643 171.267 142.748 175.682 144.501 179.645C146.256 183.607 149.449 186.652 153.495 188.221C158.603 190.196 164.175 190.068 169.186 187.849C174.195 185.629 178.043 181.597 180.018 176.496ZM122.307 140.206C122.307 130.945 129.813 123.449 139.072 123.449C148.331 123.449 155.837 130.945 155.837 140.206C155.837 149.467 148.331 156.974 139.072 156.974C129.813 156.974 122.307 149.467 122.307 140.206ZM132.074 187.523C128.377 189.999 124.12 191.288 119.768 191.288C118.325 191.288 116.874 191.149 115.427 190.858C109.614 189.72 104.596 186.373 101.296 181.446C95.7947 173.242 97.9956 162.098 106.199 156.59C112.842 152.14 121.866 153.929 126.318 160.564C128.068 163.179 128.696 166.316 128.087 169.396C127.48 172.475 125.706 175.136 123.095 176.891C120.97 178.32 118.416 178.832 115.906 178.332C113.395 177.832 111.228 176.391 109.803 174.265C108.637 172.533 108.219 170.442 108.623 168.385C109.028 166.34 110.209 164.562 111.947 163.4C114.894 161.424 118.897 162.214 120.874 165.166C122.505 167.595 121.852 170.906 119.418 172.533C117.393 173.893 114.643 173.347 113.287 171.325C112.149 169.628 112.605 167.327 114.3 166.189C114.685 165.933 115.205 166.038 115.463 166.421C115.721 166.805 115.618 167.327 115.234 167.583C114.306 168.199 114.057 169.466 114.679 170.395C115.521 171.65 117.228 171.987 118.484 171.139C120.151 170.023 120.598 167.757 119.48 166.096C118.02 163.911 115.059 163.33 112.88 164.794C111.515 165.712 110.586 167.107 110.268 168.71C109.951 170.325 110.279 171.964 111.195 173.335C112.37 175.09 114.159 176.275 116.23 176.693C118.303 177.1 120.409 176.67 122.162 175.496C124.4 173.997 125.921 171.72 126.443 169.07C126.965 166.421 126.426 163.737 124.924 161.494C120.987 155.626 113.007 154.046 107.134 157.985C99.6968 162.97 97.7028 173.079 102.688 180.516C105.738 185.071 110.378 188.163 115.753 189.22C121.127 190.277 126.591 189.185 131.141 186.129C131.525 185.873 132.045 185.978 132.304 186.361C132.561 186.745 132.459 187.268 132.074 187.523ZM97.6214 130.34C97.2984 127.795 97.9828 125.285 99.5492 123.263C100.829 121.613 102.677 120.556 104.753 120.289C106.827 120.021 108.883 120.579 110.536 121.857C111.896 122.915 112.764 124.437 112.981 126.134C113.198 127.842 112.739 129.527 111.688 130.886C110.819 132.013 109.565 132.722 108.156 132.908C106.748 133.083 105.355 132.711 104.232 131.839C102.304 130.352 101.95 127.563 103.441 125.634C104.691 124.03 107.022 123.728 108.636 124.972C109.002 125.262 109.07 125.785 108.786 126.157C108.503 126.517 107.976 126.587 107.61 126.296C107.183 125.971 106.652 125.831 106.114 125.89C105.577 125.959 105.099 126.238 104.767 126.668C103.842 127.865 104.061 129.585 105.257 130.515C106.844 131.735 109.134 131.444 110.361 129.864C111.139 128.853 111.479 127.609 111.318 126.354C111.158 125.088 110.515 123.972 109.511 123.182C108.21 122.183 106.595 121.741 104.964 121.95C103.334 122.159 101.881 122.985 100.875 124.286C99.5829 125.959 99.0182 128.028 99.2843 130.131C99.5516 132.223 100.618 134.082 102.288 135.383C106.688 138.788 113.038 137.975 116.444 133.571C120.77 127.981 119.743 119.917 114.151 115.583C110.721 112.933 106.461 111.771 102.159 112.317C97.8573 112.863 94.025 115.06 91.3709 118.488C84.4511 127.435 86.0953 140.334 95.0383 147.259C95.4043 147.538 95.4705 148.073 95.1881 148.433C95.0231 148.642 94.7745 148.758 94.5246 148.758C94.3457 148.758 94.1644 148.7 94.0122 148.584C89.3257 144.959 86.3324 139.718 85.584 133.849C84.8345 127.97 86.4183 122.148 90.045 117.465C92.9745 113.677 97.2008 111.26 101.948 110.655C106.693 110.051 111.393 111.329 115.177 114.258C118.239 116.628 120.196 120.056 120.685 123.891C121.176 127.737 120.14 131.537 117.769 134.605C115.845 137.08 113.069 138.672 109.952 139.067C106.834 139.474 103.748 138.625 101.262 136.708C99.2378 135.139 97.9445 132.873 97.6214 130.34ZM118.056 102.01C121.078 90.1573 133.181 82.9761 145.032 85.9974C154.604 88.4377 160.406 98.2101 157.965 107.774C157.008 111.527 154.647 114.688 151.316 116.663C149.047 118.011 146.512 118.697 143.94 118.697C142.738 118.697 141.527 118.546 140.333 118.244C137.287 117.465 134.726 115.548 133.121 112.852C131.518 110.144 131.061 106.983 131.837 103.939C133.143 98.8144 138.37 95.7118 143.49 97.0133C147.675 98.0823 150.211 102.359 149.143 106.542C148.267 109.981 144.758 112.061 141.321 111.19C139.944 110.841 138.787 109.97 138.063 108.75C137.338 107.53 137.133 106.1 137.484 104.729C137.775 103.579 138.495 102.614 139.51 102.022C140.525 101.417 141.714 101.243 142.858 101.534C144.836 102.045 146.036 104.055 145.531 106.042C145.417 106.484 144.96 106.751 144.511 106.647C144.063 106.53 143.792 106.077 143.906 105.624C144.183 104.543 143.526 103.439 142.443 103.16C141.733 102.975 140.995 103.079 140.365 103.463C139.736 103.834 139.289 104.427 139.108 105.136C138.868 106.077 139.008 107.065 139.505 107.89C140 108.726 140.792 109.319 141.734 109.563C142.966 109.877 144.245 109.691 145.338 109.04C146.431 108.401 147.205 107.355 147.52 106.135C148.358 102.835 146.364 99.4768 143.075 98.6401C138.85 97.5594 134.539 100.127 133.463 104.346C132.797 106.96 133.188 109.679 134.563 111.992C135.939 114.316 138.134 115.954 140.747 116.617C147.598 118.371 154.593 114.211 156.34 107.367C158.552 98.6865 153.294 89.8319 144.618 87.6124C133.663 84.8236 122.474 91.4588 119.68 102.417C119.565 102.87 119.11 103.137 118.661 103.021C118.211 102.916 117.941 102.452 118.056 102.01ZM199.144 130.631C199.144 116.803 187.925 105.578 174.087 105.578C170.511 105.578 167.112 106.333 164.033 107.681C164.092 106.995 164.129 106.286 164.129 105.578C164.129 91.7378 152.911 80.5241 139.072 80.5241C125.233 80.5241 114.015 91.7378 114.015 105.578C114.015 106.286 114.052 106.995 114.111 107.681C111.032 106.333 107.633 105.578 104.057 105.578C90.2182 105.578 79 116.803 79 130.631C79 142.507 87.2573 152.442 98.3396 155.033C94.692 159.379 92.4923 164.992 92.4923 171.116C92.4923 184.955 103.71 196.169 117.549 196.169C126.698 196.169 134.698 191.265 139.072 183.944C143.446 191.265 151.446 196.169 160.595 196.169C174.434 196.169 185.652 184.955 185.652 171.116C185.652 164.992 183.452 159.379 179.804 155.033C190.887 152.442 199.144 142.507 199.144 130.631Z" fill="#F4B869"/>
<path d="M286.544 156.232C284.24 162.888 281.893 169.288 279.504 175.432C277.115 181.576 275.109 186.227 273.488 189.384C271.952 192.627 270.587 194.845 269.392 196.04C268.197 197.235 266.96 198.045 265.68 198.472C264.485 198.899 263.248 199.069 261.968 198.984C260.773 198.899 259.536 198.813 258.256 198.728C251.088 197.619 248.869 192.456 251.6 183.24C253.392 175.901 254.843 169.928 255.952 165.32C257.061 160.627 257.957 156.787 258.64 153.8C259.408 150.728 260.048 148.211 260.56 146.248C261.072 144.2 261.627 142.195 262.224 140.232C262.821 138.269 263.547 136.051 264.4 133.576C265.339 131.101 266.533 127.816 267.984 123.72C264.741 124.147 261.84 123.805 259.28 122.696C255.525 121.075 253.989 117.576 254.672 112.2C255.013 109.725 256.336 107.421 258.64 105.288C259.835 104.179 261.243 102.984 262.864 101.704C266.192 99.0587 272.805 96.2427 282.704 93.256C292.944 90.184 301.733 88.7333 309.072 88.904C311.035 88.5627 313.04 88.8187 315.088 89.672C317.221 90.44 318.928 91.5067 320.208 92.872C321.488 94.2373 322.128 95.7307 322.128 97.352C322.213 98.9733 321.189 100.424 319.056 101.704C318.032 102.387 317.307 103.539 316.88 105.16C316.453 106.696 315.984 108.36 315.472 110.152C314.96 111.859 314.192 113.437 313.168 114.888C312.229 116.339 310.693 117.192 308.56 117.448C307.451 118.045 305.872 118.472 303.824 118.728C301.861 118.984 300.539 119.197 299.856 119.368C299.259 119.453 298.917 119.667 298.832 120.008C297.296 124.531 295.461 130.035 293.328 136.52C291.195 142.92 288.933 149.491 286.544 156.232ZM269.264 122.312C269.093 122.312 269.008 122.355 269.008 122.44C269.008 122.44 269.093 122.44 269.264 122.44V122.312ZM335.178 172.872C340.127 173.384 343.797 173.64 346.186 173.64C348.661 173.64 352.373 173.299 357.322 172.616C358.858 173.128 359.754 173.768 360.01 174.536C360.266 175.304 360.351 176.115 360.266 176.968C360.181 177.736 360.223 178.504 360.394 179.272C360.565 180.04 361.375 180.68 362.826 181.192C363.594 181.448 363.807 182.216 363.466 183.496C363.21 184.691 362.527 186.013 361.418 187.464C358.602 191.133 355.274 193.693 351.434 195.144C345.29 196.68 340.469 197.576 336.97 197.832C331.167 198.259 324.853 198.045 318.026 197.192C310.517 195.827 306.89 192.712 307.146 187.848C307.146 169.928 311.071 151.923 318.922 133.832C321.482 127.944 324.383 121.757 327.626 115.272C328.309 113.907 328.693 112.371 328.778 110.664C328.949 108.957 329.077 107.293 329.162 105.672C329.247 104.051 329.503 102.6 329.93 101.32C330.357 100.04 331.253 99.144 332.618 98.632C350.367 91.5493 364.405 88.8187 374.73 90.44C378.314 90.5253 380.661 91.7627 381.77 94.152C382.965 96.456 383.093 99.0587 382.154 101.96C381.301 104.861 379.551 107.592 376.906 110.152C374.346 112.712 371.103 114.291 367.178 114.888C362.143 116.339 359.071 117.32 357.962 117.832C355.829 118.856 354.293 120.221 353.354 121.928C352.159 123.805 351.05 125.597 350.026 127.304C349.002 129.011 348.277 130.845 347.85 132.808L347.338 135.624C348.959 136.392 350.922 136.648 353.226 136.392C355.615 136.051 357.791 135.752 359.754 135.496C361.802 135.155 363.423 135.112 364.618 135.368C365.898 135.624 366.154 136.904 365.386 139.208C364.703 141.427 363.381 143.944 361.418 146.76C359.541 149.576 356.853 151.624 353.354 152.904C351.135 153.331 349.599 153.672 348.746 153.928C347.978 154.099 347.381 154.227 346.954 154.312C346.357 154.397 344.65 154.525 341.834 154.696C337.823 161.523 335.391 166.813 334.538 170.568C334.197 172.104 334.41 172.872 335.178 172.872ZM417.791 195.144C415.999 195.656 414.292 195.912 412.671 195.912C411.05 195.997 409.386 196.083 407.679 196.168C406.058 196.253 403.796 196.296 400.895 196.296C397.994 196.296 393.642 196.211 387.839 196.04C386.474 196.125 385.108 196.168 383.743 196.168C382.378 196.168 381.098 195.912 379.903 195.4C377.258 194.291 375.466 191.731 374.527 187.72C374.1 185.843 373.631 184.52 373.119 183.752C372.522 182.984 372.052 182.259 371.711 181.576C370.858 180.211 370.943 177.949 371.967 174.792C372.906 171.635 374.143 167.752 375.679 163.144C377.215 158.451 378.964 153.501 380.927 148.296C385.535 135.923 389.674 126.109 393.343 118.856C394.794 115.613 396.031 112.797 397.055 110.408C398.164 108.019 399.146 105.971 399.999 104.264C400.852 102.472 401.279 101.533 401.279 101.448C402.132 98.2053 405.418 95.4747 411.135 93.256C416.682 90.952 421.716 90.3547 426.239 91.464C431.274 92.744 433.492 96.072 432.895 101.448C431.7 106.739 429.908 112.029 427.519 117.32C425.215 122.611 422.57 128.157 419.583 133.96C416.596 139.763 413.354 145.907 409.855 152.392C406.356 158.877 402.9 165.917 399.487 173.512C399.402 173.853 399.572 174.152 399.999 174.408C401.108 174.323 402.644 173.981 404.607 173.384C406.655 172.787 408.746 172.275 410.879 171.848C413.098 171.336 415.274 171.08 417.407 171.08C419.54 171.08 421.332 171.635 422.783 172.744C422.698 174.28 423.082 175.517 423.935 176.456C424.788 177.309 425.642 178.163 426.495 179.016C428.628 181.235 428.799 184.179 427.007 187.848C425.3 191.432 422.228 193.864 417.791 195.144ZM462.053 172.872C467.002 173.384 470.672 173.64 473.061 173.64C475.536 173.64 479.248 173.299 484.197 172.616C485.733 173.128 486.629 173.768 486.885 174.536C487.141 175.304 487.226 176.115 487.141 176.968C487.056 177.736 487.098 178.504 487.269 179.272C487.44 180.04 488.25 180.68 489.701 181.192C490.469 181.448 490.682 182.216 490.341 183.496C490.085 184.691 489.402 186.013 488.293 187.464C485.477 191.133 482.149 193.693 478.309 195.144C472.165 196.68 467.344 197.576 463.845 197.832C458.042 198.259 451.728 198.045 444.901 197.192C437.392 195.827 433.765 192.712 434.021 187.848C434.021 169.928 437.946 151.923 445.797 133.832C448.357 127.944 451.258 121.757 454.501 115.272C455.184 113.907 455.568 112.371 455.653 110.664C455.824 108.957 455.952 107.293 456.037 105.672C456.122 104.051 456.378 102.6 456.805 101.32C457.232 100.04 458.128 99.144 459.493 98.632C477.242 91.5493 491.28 88.8187 501.605 90.44C505.189 90.5253 507.536 91.7627 508.645 94.152C509.84 96.456 509.968 99.0587 509.029 101.96C508.176 104.861 506.426 107.592 503.781 110.152C501.221 112.712 497.978 114.291 494.053 114.888C489.018 116.339 485.946 117.32 484.837 117.832C482.704 118.856 481.168 120.221 480.229 121.928C479.034 123.805 477.925 125.597 476.901 127.304C475.877 129.011 475.152 130.845 474.725 132.808L474.213 135.624C475.834 136.392 477.797 136.648 480.101 136.392C482.49 136.051 484.666 135.752 486.629 135.496C488.677 135.155 490.298 135.112 491.493 135.368C492.773 135.624 493.029 136.904 492.261 139.208C491.578 141.427 490.256 143.944 488.293 146.76C486.416 149.576 483.728 151.624 480.229 152.904C478.01 153.331 476.474 153.672 475.621 153.928C474.853 154.099 474.256 154.227 473.829 154.312C473.232 154.397 471.525 154.525 468.709 154.696C464.698 161.523 462.266 166.813 461.413 170.568C461.072 172.104 461.285 172.872 462.053 172.872ZM551.066 92.36C563.354 89.8853 572.911 91.4213 579.738 96.968C582.981 99.6133 585.114 103.453 586.138 108.488C587.247 113.523 586.693 119.155 584.474 125.384C583.535 128.285 581.914 130.461 579.61 131.912C577.306 133.363 574.917 134.216 572.442 134.472C570.053 134.643 567.877 134.344 565.914 133.576C563.951 132.723 562.885 131.528 562.714 129.992L561.562 127.432C559.514 124.36 555.973 123.976 550.938 126.28C546.586 128.243 542.234 131.656 537.882 136.52C533.274 141.725 530.287 146.419 528.922 150.6C527.386 155.208 526.618 158.237 526.618 159.688C526.447 162.931 527.599 165.832 530.074 168.392C533.658 170.696 537.242 171.763 540.826 171.592C544.41 171.336 547.61 170.525 550.426 169.16C553.242 167.709 555.546 166.088 557.338 164.296C559.13 162.504 560.026 161.224 560.026 160.456C560.282 159.944 560.538 159.432 560.794 158.92C561.05 158.408 561.263 157.896 561.434 157.384C561.093 157.384 561.178 157.384 561.69 157.384C562.202 157.299 562.33 157.299 562.074 157.384C561.818 157.384 561.946 157.427 562.458 157.512L563.226 157.768C559.045 161.523 554.991 162.291 551.066 160.072C549.53 159.133 548.165 158.152 546.97 157.128C545.775 156.019 544.666 155.507 543.642 155.592C541.765 154.568 541.338 152.563 542.362 149.576C542.789 148.381 543.557 147.272 544.666 146.248C545.861 145.139 547.354 144.371 549.146 143.944C557.679 140.275 565.573 139.421 572.826 141.384C576.069 142.237 578.287 143.987 579.482 146.632C580.762 149.192 581.317 152.093 581.146 155.336C580.975 158.579 580.25 161.864 578.97 165.192C577.775 168.52 576.453 171.208 575.002 173.256C573.551 175.219 571.503 177.565 568.858 180.296C566.298 183.027 563.055 185.672 559.13 188.232C549.487 194.461 539.162 197.448 528.154 197.192C512.197 196.936 502.767 190.408 499.866 177.608C498.927 173.512 498.501 168.904 498.586 163.784C499.439 148.936 503.877 135.069 511.898 122.184C515.738 116.04 520.901 109.981 527.386 104.008C531.482 100.339 536.09 97.5227 541.21 95.56C543.941 94.4507 547.226 93.384 551.066 92.36ZM604.4 189.384C603.632 192.797 600.987 194.888 596.464 195.656C592.283 196.424 588.315 195.955 584.56 194.248C580.379 192.456 578.544 189.939 579.056 186.696C578.544 181.747 581.147 170.995 586.864 154.44C595.397 129.608 603.931 111.859 612.464 101.192C614.683 98.4613 616.56 96.712 618.096 95.944C619.717 95.0907 621.552 94.3227 623.6 93.64C625.648 92.9573 627.781 92.3173 630 91.72C634.437 90.5253 638.619 89.7147 642.544 89.288C646.555 88.776 650.139 89.2453 653.296 90.696C656.453 92.0613 658.885 94.1093 660.592 96.84C662.384 99.5707 663.493 102.813 663.92 106.568C664.347 110.237 664.219 114.12 663.536 118.216C662.853 122.227 661.616 126.323 659.824 130.504C658.032 134.6 655.771 138.44 653.04 142.024C647.067 149.875 640.069 154.952 632.048 157.256L633.328 159.432C634.437 161.139 635.76 163.016 637.296 165.064C638.917 167.112 640.496 169.203 642.032 171.336C643.653 173.469 645.104 175.603 646.384 177.736C647.664 179.869 648.603 181.875 649.2 183.752C650.565 187.933 649.499 190.963 646 192.84C643.184 194.547 640.965 194.973 639.344 194.12C638.661 193.693 637.979 193.139 637.296 192.456C636.613 191.859 635.675 191.347 634.48 190.92C629.445 192.371 625.605 191.091 622.96 187.08C621.339 184.52 620.101 182.173 619.248 180.04C618.395 177.907 617.669 176.115 617.072 174.664C615.536 171.507 613.787 168.776 611.824 166.472C610.885 168.776 609.819 171.72 608.624 175.304C607.173 179.827 605.552 184.52 603.76 189.384H604.4ZM630.256 114.888C628.635 118.557 627.525 121.117 626.928 122.568C625.733 125.469 624.411 128.669 622.96 132.168C622.704 134.045 622.491 135.368 622.32 136.136L624.112 134.344L626.288 133.32C627.824 132.467 629.232 131.699 630.512 131.016C631.792 130.333 632.944 129.48 633.968 128.456C635.931 126.493 637.637 123.293 639.088 118.856C639.088 118.003 639.216 117.149 639.472 116.296C639.813 115.443 640.027 114.589 640.112 113.736C640.453 111.859 639.685 110.536 637.808 109.768C636.101 109.597 633.968 111.005 631.408 113.992C630.896 114.589 630.512 114.888 630.256 114.888ZM727.284 102.216C730.185 103.752 732.02 106.013 732.788 109C731.081 118.557 729.545 128.072 728.18 137.544C726.815 146.931 725.492 154.824 724.212 161.224C722.932 167.539 722.036 172.275 721.524 175.432C721.097 178.589 720.585 181.747 719.988 184.904L719.22 187.592C719.049 188.531 718.879 189.384 718.708 190.152C718.537 191.005 718.367 191.901 718.196 192.84C715.807 195.571 712.564 196.936 708.468 196.936C704.116 196.936 700.66 195.827 698.1 193.608C696.564 192.413 696.308 189.896 697.332 186.056C697.759 184.52 698.015 182.557 698.1 180.168C698.271 177.693 698.441 175.645 698.612 174.024V173.768C696.052 174.707 693.748 175.944 691.7 177.48C689.652 178.931 688.372 179.869 687.86 180.296C687.348 180.637 686.665 180.936 685.812 181.192C684.959 181.363 684.191 181.491 683.508 181.576C681.887 181.661 680.777 181.917 680.18 182.344C675.231 191.219 670.793 196.168 666.868 197.192C664.393 197.96 661.919 198.131 659.444 197.704C656.969 197.363 655.007 195.912 653.556 193.352C650.825 190.792 651.508 183.795 655.604 172.36C657.823 166.301 660.98 159.048 665.076 150.6C669.257 142.067 673.268 134.643 677.108 128.328C685.385 114.76 694.473 103.325 704.372 94.024C705.993 93.3413 707.743 92.5733 709.62 91.72C711.497 90.7813 713.332 90.2693 715.124 90.184C717.001 90.0987 718.921 90.312 720.884 90.824C722.847 91.336 724.511 92.104 725.876 93.128C729.033 95.5173 729.503 98.5467 727.284 102.216ZM699.892 135.88C698.1 141 696.308 145.736 694.516 150.088C692.724 154.355 691.188 158.109 689.908 161.352L700.02 160.968C700.703 155.507 701.471 150.088 702.324 144.712C703.177 139.336 703.988 133.96 704.756 128.584L699.892 135.88ZM696.436 161.48C697.631 161.48 698.825 161.395 700.02 161.224V161.096C698.911 161.181 697.887 161.267 696.948 161.352C696.009 161.437 695.839 161.48 696.436 161.48ZM779.054 95.56C779.907 97.864 780.377 99.4 780.462 100.168C780.633 101.789 780.035 103.155 778.67 104.264C778.67 104.349 778.585 104.477 778.414 104.648C779.182 108.659 779.353 112.413 778.926 115.912C778.499 119.411 777.945 122.781 777.262 126.024C781.87 118.173 785.539 112.413 788.27 108.744C793.902 101.149 799.15 95.7307 804.014 92.488C805.635 91.5493 807.598 90.8667 809.902 90.44C812.291 89.928 814.553 89.8427 816.686 90.184C818.819 90.5253 820.569 91.3787 821.934 92.744C823.385 94.1093 824.025 96.1573 823.854 98.888C821.465 115.528 818.905 131.059 816.174 145.48C813.443 159.816 809.902 173.512 805.55 186.568V186.824H805.422C804.398 189.896 801.838 192.072 797.742 193.352C793.731 194.547 790.147 194.632 786.99 193.608C783.15 192.499 781.401 190.451 781.742 187.464L781.87 184.52V184.264C782.211 182.216 782.382 180.851 782.382 180.168C782.467 179.4 782.553 178.845 782.638 178.504C782.809 176.285 783.15 174.237 783.662 172.36C784.259 170.397 784.686 168.819 784.942 167.624C785.198 166.429 785.454 165.32 785.71 164.296C785.966 163.187 786.137 162.333 786.222 161.736C782.979 166.173 780.675 168.861 779.31 169.8C775.897 172.189 771.929 173.299 767.406 173.128C764.59 172.957 762.969 172.317 762.542 171.208C761.689 168.819 761.091 167.411 760.75 166.984C760.238 166.301 759.811 165.149 759.47 163.528C757.251 173.341 755.075 180.296 752.942 184.392C752.089 186.013 751.235 187.464 750.382 188.744C749.187 191.56 746.457 193.523 742.19 194.632C738.179 195.741 734.339 195.656 730.67 194.376C726.915 193.181 725.123 191.048 725.294 187.976C725.465 184.904 726.105 181.064 727.214 176.456C728.238 171.763 729.475 166.813 730.926 161.608C735.278 145.139 738.35 134.429 740.142 129.48C742.019 124.531 743.598 120.648 744.878 117.832C747.95 111.261 750.681 106.483 753.07 103.496C755.715 98.12 760.11 94.8773 766.254 93.768C771.118 92.8293 775.385 93.4267 779.054 95.56Z" fill="#F4B869"/>
</svg>
