<svg width="670" height="276" viewBox="0 0 670 276" fill="none" xmlns="http://www.w3.org/2000/svg">
<path d="M5.90165 137.618C5.66346 145.185 5.53743 151.55 7.67718 158.423C3.76033 166.65 4.95763 184.667 6.182 193.754C7.71164 205.106 13.2001 212.087 18.7976 219.925C29.9329 235.517 42.1611 250.726 58.8873 251.264C133.011 253.65 207.122 253.082 281.249 258.003C331.656 261.35 381.945 269.004 432.403 270.762C484.309 272.57 536.296 264.163 585.94 243.217C612.619 231.96 643.996 213.142 656.775 175.827C663.369 156.572 665.724 133.673 664.811 112.494C664.14 96.921 662.595 73.1785 654.532 60.9372C641.991 41.8969 617.511 35.3546 600.145 33.1961C577.044 30.3251 553.837 28.9715 530.712 26.5226C502.466 23.5313 474.527 17.1733 446.187 15.9234C410.624 14.355 375.211 13.6111 339.655 10.6238C314.806 8.53607 289.898 7.66307 265.036 5.84765C242.565 4.20684 219.831 5.01755 197.426 7.6796C168.22 11.1496 139.023 15.9243 110.191 23.3821C87.7429 29.1885 65.0957 37.1589 44.0289 49.6837C37.3996 53.625 31.5361 58.5254 26.2736 65.3862C19.9963 73.5699 11.7436 82.0494 9.35927 94.1741C6.64014 108.001 6.34932 123.396 5.90165 137.618Z" fill="black" stroke="#F4B869" stroke-width="9" stroke-linecap="round"/>
<path d="M302.299 124.413C301.412 124.693 300.475 124.32 300.004 123.56L284.427 129.213C284.705 130.2 284.909 131.213 285.029 132.253L287.644 131.6C287.688 130.707 288.269 129.893 289.172 129.6C290.34 129.213 291.592 129.853 291.969 131.027C292.347 132.187 291.707 133.44 290.54 133.827C289.424 134.187 288.239 133.6 287.805 132.533L285.1 133C285.137 133.48 285.164 133.987 285.164 134.48C285.164 134.973 285.139 135.44 285.104 135.92L298.213 135.28C298.339 134.52 298.867 133.853 299.652 133.6C300.772 133.24 301.975 133.853 302.337 134.973C302.7 136.093 302.085 137.293 300.965 137.667C299.924 138 298.824 137.48 298.379 136.52L285.067 136.413C284.863 138.467 284.332 140.427 283.532 142.24L285.777 143.253C285.816 143.213 285.851 143.173 285.893 143.133C286.533 142.613 287.472 142.72 287.991 143.36C288.508 144 288.411 144.933 287.771 145.453C287.132 145.973 286.193 145.867 285.675 145.24C285.373 144.867 285.287 144.387 285.388 143.96L283.277 142.8C282.975 143.427 282.637 144.04 282.272 144.627L296.305 153.12C296.877 152.76 297.635 152.88 298.069 153.413C298.543 154 298.452 154.853 297.869 155.32C297.287 155.8 296.431 155.707 295.959 155.12C295.725 154.84 295.632 154.48 295.663 154.147L282.044 144.987C281.459 145.88 280.803 146.72 280.079 147.507L287.373 153.453C288.312 152.733 289.663 152.88 290.415 153.8C291.176 154.747 291.032 156.12 290.092 156.893C289.151 157.653 287.771 157.507 287.009 156.56C286.443 155.867 286.379 154.92 286.769 154.173L279.759 147.84C279.224 148.4 278.66 148.92 278.064 149.4L290.213 162.4C291.035 161.973 292.073 162.16 292.681 162.92C293.372 163.76 293.241 165.013 292.388 165.707C291.536 166.4 290.284 166.267 289.593 165.413C289.007 164.693 289.019 163.68 289.556 162.973L277.875 149.547C277.103 150.16 276.281 150.72 275.419 151.213L277.608 154.333C278.459 154.053 279.431 154.293 280.029 155.04C280.801 155.987 280.655 157.387 279.701 158.16C278.749 158.933 277.351 158.787 276.579 157.84C275.84 156.92 275.951 155.613 276.795 154.827L274.839 151.533C274.019 151.96 273.163 152.333 272.277 152.64L277.975 165.52C278.731 165.36 279.544 165.613 280.064 166.253C280.805 167.173 280.665 168.52 279.749 169.253C278.833 170 277.491 169.853 276.749 168.947C276.061 168.093 276.141 166.88 276.885 166.12L271.864 152.787C269.993 153.387 268 153.72 265.928 153.72C264.888 153.72 263.867 153.64 262.871 153.48L262.605 155.667C262.653 155.693 262.704 155.707 262.751 155.747C263.437 156.2 263.627 157.12 263.172 157.8C262.719 158.493 261.793 158.68 261.108 158.227C260.42 157.773 260.232 156.853 260.685 156.16C260.949 155.76 261.375 155.533 261.819 155.507L262.244 153.36C261.553 153.227 260.876 153.067 260.215 152.853L256.367 168.667C256.876 169.107 256.996 169.867 256.615 170.44C256.201 171.067 255.359 171.24 254.732 170.827C254.107 170.413 253.935 169.573 254.348 168.947C254.552 168.64 254.86 168.44 255.193 168.373L259.808 152.72C258.784 152.373 257.797 151.947 256.859 151.453L253.356 160.253C254.332 160.933 254.596 162.267 253.937 163.267C253.271 164.267 251.911 164.547 250.901 163.88C249.891 163.213 249.613 161.853 250.281 160.84C250.777 160.093 251.659 159.747 252.492 159.893L256.453 151.227C255.785 150.84 255.14 150.427 254.525 149.973L245.673 165.653C246.333 166.307 246.465 167.36 245.933 168.16C245.328 169.08 244.095 169.333 243.18 168.72C242.264 168.12 242.012 166.88 242.617 165.973C243.132 165.187 244.097 164.907 244.939 165.2L254.337 149.827C253.552 149.24 252.815 148.587 252.131 147.88L249.581 151.213C250.105 151.933 250.163 152.933 249.637 153.733C248.961 154.747 247.584 155.027 246.56 154.36C245.537 153.68 245.256 152.307 245.933 151.28C246.58 150.293 247.865 150.013 248.872 150.573L251.693 147.427C251.076 146.747 250.508 146.027 249.993 145.267L239.024 154.92C239.4 155.6 239.404 156.453 238.949 157.133C238.3 158.12 236.976 158.387 235.995 157.733C235.011 157.093 234.741 155.76 235.391 154.787C235.993 153.867 237.172 153.587 238.125 154.067L249.772 144.92C248.401 142.8 247.436 140.4 246.985 137.813L245.144 138.32C245.139 138.387 245.139 138.44 245.128 138.493C244.971 139.293 244.189 139.827 243.381 139.667C242.573 139.507 242.045 138.733 242.203 137.92C242.36 137.107 243.143 136.587 243.951 136.747C244.421 136.827 244.791 137.133 244.992 137.533L246.881 137.16C246.785 136.467 246.728 135.773 246.707 135.067L230.74 137.52C230.528 138.16 229.876 138.56 229.197 138.427C228.461 138.293 227.98 137.573 228.124 136.84C228.267 136.107 228.98 135.627 229.717 135.76C230.079 135.84 230.379 136.04 230.573 136.32L246.696 134.627C246.695 134.587 246.692 134.533 246.692 134.48C246.692 133.44 246.779 132.4 246.941 131.4L237.369 131.533C237.116 132.693 235.985 133.44 234.813 133.213C233.625 132.987 232.849 131.827 233.081 130.64C233.313 129.453 234.464 128.68 235.652 128.92C236.536 129.08 237.189 129.773 237.372 130.6L247.021 130.947C247.164 130.187 247.345 129.44 247.573 128.72L229.444 126.493C229.093 127.347 228.173 127.867 227.227 127.693C226.149 127.48 225.447 126.44 225.657 125.36C225.867 124.28 226.911 123.573 227.987 123.787C228.901 123.96 229.541 124.747 229.585 125.64L247.645 128.493C247.953 127.56 248.331 126.653 248.772 125.787L244.292 124.587C243.82 125.347 242.916 125.787 241.983 125.6C240.779 125.36 239.993 124.2 240.228 123C240.463 121.787 241.628 121.013 242.832 121.24C243.984 121.467 244.743 122.547 244.603 123.693L249.051 125.253C249.485 124.453 249.973 123.693 250.512 122.973L236.827 116.253C236.347 116.853 235.563 117.187 234.752 117.027C233.596 116.8 232.841 115.68 233.067 114.52C233.292 113.36 234.412 112.613 235.568 112.84C236.641 113.04 237.359 114.027 237.277 115.093L250.744 122.68C252.407 120.547 254.509 118.773 256.917 117.493L255.865 114.707C255.811 114.72 255.756 114.72 255.7 114.707C254.881 114.627 254.285 113.893 254.368 113.08C254.451 112.253 255.181 111.667 256 111.747C256.82 111.827 257.416 112.56 257.333 113.387C257.285 113.853 257.013 114.253 256.637 114.493L257.444 117.213C258.065 116.907 258.707 116.64 259.365 116.4L255.344 100.293C254.691 100.147 254.232 99.5333 254.301 98.84C254.377 98.0933 255.044 97.5467 255.791 97.6267C256.537 97.7067 257.081 98.3733 257.005 99.1199C256.968 99.4799 256.787 99.8001 256.525 100.013L259.759 116.267C260.765 115.92 261.809 115.667 262.884 115.493L261.921 106.347C260.744 106.2 259.889 105.147 260.011 103.96C260.132 102.747 261.208 101.88 262.412 102C263.616 102.12 264.493 103.2 264.371 104.4C264.28 105.293 263.661 106.013 262.855 106.267L263.356 115.427C264.12 115.32 264.899 115.267 265.688 115.253L266.215 97.9999C265.327 97.7199 264.723 96.8534 264.821 95.8934C264.931 94.8 265.905 94.0133 266.999 94.1199C268.089 94.2266 268.885 95.2 268.775 96.2934C268.681 97.2267 267.961 97.9333 267.079 98.0533L265.948 115.253C266.977 115.253 267.988 115.333 268.973 115.493L269.469 112.613C268.667 112.213 268.152 111.347 268.248 110.4C268.371 109.187 269.46 108.293 270.681 108.413C271.901 108.533 272.789 109.627 272.667 110.853C272.548 112.013 271.544 112.867 270.389 112.84L269.692 115.613C270.656 115.813 271.596 116.067 272.504 116.4L277.091 104.413C276.444 103.987 276.045 103.24 276.128 102.413C276.247 101.24 277.293 100.387 278.465 100.507C279.637 100.627 280.492 101.68 280.373 102.853C280.263 103.933 279.353 104.733 278.285 104.76L272.976 116.587C275.411 117.547 277.603 118.987 279.433 120.787L280.249 119.987C280.225 119.947 280.199 119.893 280.183 119.84C279.929 119.053 280.359 118.213 281.141 117.96C281.924 117.707 282.765 118.133 283.019 118.92C283.272 119.707 282.841 120.547 282.059 120.8C281.603 120.947 281.131 120.853 280.763 120.6L279.935 121.307C280.423 121.827 280.887 122.373 281.316 122.947L293.239 113.72C293.116 113.053 293.493 112.387 294.151 112.187C294.864 111.947 295.631 112.333 295.861 113.053C296.092 113.773 295.701 114.533 294.987 114.76C294.636 114.88 294.273 114.84 293.967 114.693L281.599 123.333C282.24 124.24 282.809 125.187 283.291 126.2L290.34 122.173C290 121.04 290.625 119.827 291.761 119.467C292.913 119.093 294.148 119.72 294.521 120.867C294.893 122.027 294.263 123.267 293.111 123.627C292.253 123.907 291.351 123.627 290.792 123L283.508 126.68C283.833 127.413 284.116 128.16 284.349 128.947L299.713 122.747C299.605 121.827 300.157 120.92 301.075 120.627C302.119 120.293 303.24 120.867 303.577 121.907C303.915 122.947 303.343 124.067 302.299 124.413ZM334.856 123.493C334.856 107.627 321.983 94.7468 306.105 94.7468C302 94.7468 298.101 95.6134 294.569 97.16C294.636 96.3734 294.679 95.5601 294.679 94.7468C294.679 78.8668 281.805 65.9999 265.928 65.9999C250.049 65.9999 237.177 78.8668 237.177 94.7468C237.177 95.5601 237.22 96.3734 237.285 97.16C233.753 95.6134 229.855 94.7468 225.751 94.7468C209.872 94.7468 197 107.627 197 123.493C197 137.12 206.475 148.52 219.191 151.493C215.004 156.48 212.481 162.92 212.481 169.947C212.481 185.827 225.353 198.693 241.232 198.693C251.729 198.693 260.909 193.067 265.928 184.667C270.945 193.067 280.127 198.693 290.624 198.693C306.501 198.693 319.375 185.827 319.375 169.947C319.375 162.92 316.851 156.48 312.665 151.493C325.381 148.52 334.856 137.12 334.856 123.493Z" fill="#F4B869"/>
<path d="M413.496 116.824L426.424 99.8C425.485 97.1547 425.827 94.3813 427.448 91.48C432.568 86.36 437.645 83.0747 442.68 81.624C448.227 80.1733 453.133 80.2587 457.4 81.88C459.533 82.7333 461.197 84.056 462.392 85.848C463.587 87.64 463.8 90.0293 463.032 93.016C460.984 97.4533 456.845 103.043 450.616 109.784C448.056 112.515 445.496 115.203 442.936 117.848C440.376 120.493 438.115 122.968 436.152 125.272C434.275 127.576 432.568 129.923 431.032 132.312C429.496 134.616 427.875 136.92 426.168 139.224C427.021 142.808 428.856 148.397 431.672 155.992C434.573 163.501 436.579 169.219 437.688 173.144C438.797 176.984 439.437 180.739 439.608 184.408C439.267 185.688 438.755 186.499 438.072 186.84C437.389 187.181 436.664 187.395 435.896 187.48C435.213 187.565 434.573 187.565 433.976 187.48C433.379 187.48 433.037 187.736 432.952 188.248C433.464 189.187 433.421 190.04 432.824 190.808C432.227 191.576 431.331 192.131 430.136 192.472C427.32 193.411 424.419 193.283 421.432 192.088C418.445 190.04 415.501 186.157 412.6 180.44C410.808 176.941 408.888 171.736 406.84 164.824C405.133 167.128 403.597 169.517 402.232 171.992C400.867 174.381 399.459 176.728 398.008 179.032C394.765 184.408 391.48 188.205 388.152 190.424C382.349 193.325 376.675 194.008 371.128 192.472C366.349 189.912 365.411 184.963 368.312 177.624C369.251 175.064 370.189 173.443 371.128 172.76C371.555 172.333 371.768 172.12 371.768 172.12C371.853 172.12 371.896 172.077 371.896 171.992C371.981 171.907 372.109 171.693 372.28 171.352C372.536 170.925 373.091 170.115 373.944 168.92C376.931 164.312 380.301 159.363 384.056 154.072L386.744 151C388.024 149.464 389.389 147.843 390.84 146.136C394.253 141.955 396.472 139.352 397.496 138.328C393.997 130.136 391.864 124.547 391.096 121.56C389.901 116.269 389.133 109.144 388.792 100.184C387.853 97.9653 388.707 95.2347 391.352 91.992C393.741 89.0907 396.557 87.1707 399.8 86.232C403.384 85.208 405.731 86.232 406.84 89.304C408.461 93.8267 409.699 98.3493 410.552 102.872C411.491 107.309 412.472 111.96 413.496 116.824Z" fill="#F4B869"/>
</svg>
